# xmcd
#
# Track frame offsets:
#	183
#	10438
#	27893
#	39013
#	61348
#	77540
#	85465
#	103398
#	111393
#	127178
#	150768
#	156003
#	164855
#	177853
#	182695
#	191128
#	209130
#	228075
#	246495
#	260443
#
# Disc length: 3665 seconds
#
# Revision: 1
# Processed by: cddbd v1.4PL0 Copyright (c) Steve Scherf et al.
# Submitted via: EasyCDDAExtractor 5.0.6
#
DISCID=140e4f14
DTITLE=Sanacore - All-aria
DYEAR=1988
DGENRE=Country
TTITLE0=O Marinaio
TTITLE1=Donna Lombarda
TTITLE2=Bei
TTITLE3=Passione Abruzzese
TTITLE4=All'aria all'aria
TTITLE5=Fronne
TTITLE6=Jesce sole
TTITLE7=Mò vè lu suonne
TTITLE8=Mare maje
TTITLE9=Miserere
TTITLE10=Dà, dà a chi avareggia
TTITLE11=A Montasola
TTITLE12=Kopilje
TTITLE13=A Pennese
TTITLE14=A Montasola
TTITLE15=Bella Ciao
TTITLE16=Battan l'otto
TTITLE17=Sola dolente
TTITLE18=Passio
TTITLE19=Gloria
EXTD=
EXTT0=
EXTT1=
EXTT2=
EXTT3=
EXTT4=
EXTT5=
EXTT6=
EXTT7=
EXTT8=
EXTT9=
EXTT10=
EXTT11=
EXTT12=
EXTT13=
EXTT14=
EXTT15=
EXTT16=
EXTT17=
EXTT18=
EXTT19=
PLAYORDER=
